<?xml version="1.0" encoding="UTF-8"?> <svg xmlns="http://www.w3.org/2000/svg" width="50" height="250" viewBox="0 0 50 250" fill="none"> <rect width="50" height="250" fill="#FF7B01"></rect> <path d="M25.8301 197.65L29 197.65L29 199.133L20.4687 199.133L20.4687 195.869C20.4687 194.916 20.7168 194.16 21.2129 193.602C21.709 193.039 22.3652 192.758 23.1816 192.758C24.0176 192.758 24.668 193.033 25.1328 193.584C25.5977 194.131 25.8301 194.898 25.8301 195.887L25.8301 197.65ZM24.6406 197.65L24.6406 195.869C24.6406 195.342 24.5176 194.939 24.2715 194.662C24.0215 194.385 23.6621 194.246 23.1934 194.246C22.7324 194.246 22.3652 194.387 22.0918 194.668C21.8145 194.949 21.6719 195.336 21.6641 195.828L21.6641 197.65L24.6406 197.65ZM25.1914 186.471L25.1914 189.975L27.8164 189.975L27.8164 185.879L29 185.879L29 191.457L20.4687 191.457L20.4687 185.92L21.6641 185.92L21.6641 189.975L24.0195 189.975L24.0195 186.471L25.1914 186.471ZM21.6641 179.217L21.6641 183.154L29 183.154L29 184.631L20.4687 184.631L20.4687 179.217L21.6641 179.217ZM20.4687 172.754L20.4687 171.271L29 171.271L29 172.754L22.9238 172.754L29 176.498L29 177.98L20.4687 177.98L20.4687 176.498L26.5508 176.498L20.4687 172.754ZM26.2227 162.986C27.1328 163.072 27.8437 163.408 28.3555 163.994C28.8633 164.58 29.1172 165.359 29.1172 166.332C29.1172 167.012 28.957 167.611 28.6367 168.131C28.3125 168.646 27.8535 169.045 27.2598 169.326C26.666 169.607 25.9766 169.754 25.1914 169.766L24.3945 169.766C23.5898 169.766 22.8809 169.623 22.2676 169.338C21.6543 169.053 21.1816 168.645 20.8496 168.113C20.5176 167.578 20.3516 166.961 20.3516 166.262C20.3516 165.32 20.6074 164.562 21.1191 163.988C21.6309 163.414 22.3535 163.08 23.2871 162.986L23.2871 164.463C22.6738 164.533 22.2324 164.713 21.9629 165.002C21.6895 165.287 21.5527 165.707 21.5527 166.262C21.5527 166.906 21.7891 167.402 22.2617 167.75C22.7305 168.094 23.4199 168.27 24.3301 168.277L25.0859 168.277C26.0078 168.277 26.7109 168.113 27.1953 167.785C27.6797 167.453 27.9219 166.969 27.9219 166.332C27.9219 165.75 27.791 165.312 27.5293 165.02C27.2676 164.727 26.832 164.541 26.2227 164.463L26.2227 162.986ZM21.6641 155.668L21.6641 158.328L29 158.328L29 159.799L21.6641 159.799L21.6641 162.436L20.4687 162.436L20.4687 155.668L21.6641 155.668ZM25.8301 153.061L29 153.061L29 154.543L20.4687 154.543L20.4687 151.279C20.4687 150.326 20.7168 149.57 21.2129 149.012C21.709 148.449 22.3652 148.168 23.1816 148.168C24.0176 148.168 24.668 148.443 25.1328 148.994C25.5977 149.541 25.8301 150.309 25.8301 151.297L25.8301 153.061ZM24.6406 153.061L24.6406 151.279C24.6406 150.752 24.5176 150.35 24.2715 150.072C24.0215 149.795 23.6621 149.656 23.1934 149.656C22.7324 149.656 22.3652 149.797 22.0918 150.078C21.8145 150.359 21.6719 150.746 21.6641 151.238L21.6641 153.061L24.6406 153.061ZM27.0137 143.135L27.0137 146.439L29 147.131L29 148.672L20.4687 145.449L20.4687 144.119L29 140.891L29 142.437L27.0137 143.135ZM25.8184 146.023L25.8184 143.551L22.2793 144.787L25.8184 146.023ZM20.4687 139.93L20.4687 138.447L27.8164 138.447L27.8164 134.691L20.4687 134.691L20.4687 133.209L27.8047 133.209L27.8047 132.178L31.0566 132.295L31.0566 133.654L29 133.654L29 139.93L20.4687 139.93ZM20.4687 125.727L20.4687 124.244L29 124.244L29 125.727L22.9238 125.727L29 129.471L29 130.953L20.4687 130.953L20.4687 129.471L26.5508 129.471L20.4687 125.727ZM29 118.262L25.8125 118.262L25.8125 119.914L29 121.561L29 123.148L25.373 121.244C24.9043 122.236 24.1367 122.732 23.0703 122.732C22.2539 122.732 21.6191 122.465 21.166 121.93C20.709 121.391 20.4766 120.641 20.4687 119.68L20.4687 116.779L29 116.779L29 118.262ZM23.1348 121.256C23.6152 121.256 23.9902 121.121 24.2598 120.852C24.5293 120.582 24.6641 120.178 24.6641 119.639L24.6641 118.262L21.6641 118.262L21.6641 119.639C21.6641 120.186 21.7949 120.592 22.0566 120.857C22.3184 121.123 22.6777 121.256 23.1348 121.256ZM25.3437 109.502L25.3437 110.51L29 110.51L29 111.986L20.4687 111.986L20.4687 110.51L24.0547 110.51L24.0547 109.695L20.4687 107.187L20.4687 105.371L24.5527 108.301L29 105.113L29 106.895L25.3437 109.502ZM24.957 97.6719C25.793 97.6719 26.5273 97.8164 27.1602 98.1055C27.7891 98.3945 28.2734 98.8086 28.6133 99.3477C28.9492 99.8828 29.1172 100.5 29.1172 101.199C29.1172 101.891 28.9492 102.508 28.6133 103.051C28.2734 103.59 27.791 104.008 27.166 104.305C26.541 104.598 25.8203 104.746 25.0039 104.75L24.5234 104.75C23.6914 104.75 22.957 104.604 22.3203 104.311C21.6836 104.014 21.1973 103.598 20.8613 103.062C20.5215 102.523 20.3516 101.906 20.3516 101.211C20.3516 100.516 20.5195 99.9004 20.8555 99.3652C21.1875 98.8262 21.668 98.4102 22.2969 98.1172C22.9219 97.8242 23.6504 97.6758 24.4824 97.6719L24.957 97.6719ZM24.5117 99.1543C23.5664 99.1543 22.8418 99.334 22.3379 99.6934C21.834 100.049 21.582 100.555 21.582 101.211C21.582 101.852 21.834 102.354 22.3379 102.717C22.8379 103.076 23.5469 103.26 24.4648 103.268L24.957 103.268C25.8945 103.268 26.6191 103.086 27.1309 102.723C27.6426 102.355 27.8984 101.848 27.8984 101.199C27.8984 100.543 27.6484 100.039 27.1484 99.6875C26.6484 99.332 25.918 99.1543 24.957 99.1543L24.5117 99.1543ZM20.4687 94.2734L27.0078 91.8125L20.4687 89.3574L20.4687 87.4414L29 87.4414L29 88.918L26.1875 88.918L22.4258 88.7715L29 91.291L29 92.3516L22.4316 94.8652L26.1875 94.7187L29 94.7187L29 96.1953L20.4687 96.1953L20.4687 94.2734ZM27.0137 80.8027L27.0137 84.1074L29 84.7988L29 86.3398L20.4687 83.1172L20.4687 81.7871L29 78.5586L29 80.1055L27.0137 80.8027ZM25.8184 83.6914L25.8184 81.2187L22.2793 82.4551L25.8184 83.6914ZM29 70.8125L29 72.2891L25.209 72.2891L25.209 76.1035L29 76.1035L29 77.5859L20.4687 77.5859L20.4687 76.1035L24.0195 76.1035L24.0195 72.2891L20.4687 72.2891L20.4687 70.8125L29 70.8125ZM31.0977 61.0801L31.0977 62.4863L29 62.4863L29 68.1055L31.0977 68.1055L31.0977 69.5352L27.8164 69.582L27.8164 68.8965C27.4883 68.5566 27.0117 68.2852 26.3867 68.082C25.7578 67.8789 25.0469 67.748 24.2539 67.6895L20.4687 67.4668L20.4687 62.0879L27.8164 62.0879L27.8164 61.0039L31.0977 61.0801ZM27.8164 67.2207L27.8164 63.5645L21.6641 63.5645L21.6641 66.0547L24.0664 66.1953C25.6719 66.3008 26.9219 66.6426 27.8164 67.2207ZM23.7324 58.3672L23.7324 56.6211C23.7324 55.9961 23.8398 55.4512 24.0547 54.9863C24.2695 54.5215 24.5742 54.168 24.9687 53.9258C25.3633 53.6836 25.8203 53.5625 26.3398 53.5625C27.1367 53.5625 27.7773 53.834 28.2617 54.377C28.7461 54.916 28.9922 55.6523 29 56.5859L29 59.8496L20.4687 59.8496L20.4687 58.3672L23.7324 58.3672ZM29 51.2422L29 52.7187L20.4687 52.7187L20.4687 51.2422L29 51.2422ZM24.9219 58.3672L27.8164 58.3672L27.8164 56.627C27.8164 56.127 27.6816 55.7383 27.4121 55.4609C27.1387 55.1797 26.7773 55.0391 26.3281 55.0391C25.8984 55.0391 25.5586 55.1758 25.3086 55.4492C25.0586 55.7227 24.9297 56.1016 24.9219 56.5859L24.9219 58.3672Z" fill="white"></path> </svg> 